<svg width="167" height="50" viewBox="0 0 167 50" fill="none" xmlns="http://www.w3.org/2000/svg">
<path d="M0.581 23.278L1.911 22.382V15.788L4.081 15.242V23.53L1.771 25.07L0.581 23.278ZM5.84106 23.292L8.55706 21.5H7.99706C7.56773 21.5 7.1244 21.3647 6.66706 21.094C6.21906 20.814 5.84573 20.4313 5.54706 19.946C5.2484 19.4607 5.09906 18.924 5.09906 18.336C5.09906 17.7667 5.23906 17.2393 5.51906 16.754C5.8084 16.2687 6.19573 15.8813 6.68106 15.592C7.17573 15.3027 7.70773 15.158 8.27706 15.158H11.4551V19.344H12.1551L12.5331 20.422L12.1551 21.5H11.4551V22.144L7.04506 25.084L5.84106 23.292ZM7.25506 18.322C7.25506 18.602 7.35306 18.8447 7.54906 19.05C7.74506 19.246 7.98773 19.344 8.27706 19.344H9.29906V17.3H8.27706C7.98773 17.3 7.74506 17.4027 7.54906 17.608C7.35306 17.804 7.25506 18.042 7.25506 18.322ZM11.7623 20.422L12.1543 19.344H13.1343C13.4143 19.344 13.6523 19.246 13.8483 19.05C14.0536 18.854 14.1563 18.6113 14.1563 18.322V15.774L16.3123 15.242V18.322C16.3123 18.8913 16.1676 19.4233 15.8783 19.918C15.5983 20.4033 15.211 20.7907 14.7163 21.08C14.231 21.36 13.7036 21.5 13.1343 21.5H12.1543L11.7623 20.422ZM12.0423 22.886H15.7383V24.566H12.0423V22.886ZM16.413 23.278L17.743 22.382V15.788L19.913 15.242V18.322C19.913 18.602 20.011 18.8447 20.207 19.05C20.4124 19.246 20.6504 19.344 20.921 19.344L21.299 20.422L20.921 21.5C20.5944 21.5 20.2584 21.3647 19.913 21.094V23.53L17.603 25.07L16.413 23.278ZM20.526 20.422L20.918 19.344H21.898C21.7113 19.0547 21.618 18.714 21.618 18.322C21.618 17.958 21.7113 17.6173 21.898 17.3H21.604V15.158H28.786C29.3553 15.158 29.8826 15.3027 30.368 15.592C30.8533 15.872 31.236 16.2547 31.516 16.74C31.8053 17.2253 31.95 17.7527 31.95 18.322C31.95 18.6767 31.894 19.0173 31.782 19.344H32.664L33.042 20.422L32.664 21.5H20.918L20.526 20.422ZM23.774 18.322C23.774 18.6113 23.872 18.854 24.068 19.05C24.2733 19.246 24.516 19.344 24.796 19.344C25.076 19.344 25.314 19.246 25.51 19.05C25.706 18.854 25.804 18.6113 25.804 18.322C25.804 18.042 25.706 17.804 25.51 17.608C25.314 17.4027 25.076 17.3 24.796 17.3C24.516 17.3 24.2733 17.4027 24.068 17.608C23.872 17.804 23.774 18.042 23.774 18.322ZM28.786 19.344C29.066 19.344 29.304 19.246 29.5 19.05C29.696 18.8447 29.794 18.602 29.794 18.322C29.794 18.042 29.6913 17.804 29.486 17.608C29.29 17.4027 29.0566 17.3 28.786 17.3H27.694C27.8713 17.6267 27.96 17.9673 27.96 18.322C27.96 18.7047 27.8713 19.0453 27.694 19.344H28.786ZM32.6201 21.5L32.2701 20.422L32.6341 19.344H32.6621C32.9421 19.344 33.1801 19.246 33.3761 19.05C33.5721 18.854 33.6701 18.6113 33.6701 18.322V15.844H35.8401V18.462C35.8401 18.7047 35.9241 18.9147 36.0921 19.092C36.2601 19.26 36.4654 19.344 36.7081 19.344C36.9601 19.344 37.1701 19.26 37.3381 19.092C37.5154 18.9147 37.6041 18.7047 37.6041 18.462V15.844H39.7601V18.462C39.7601 18.7047 39.8441 18.9147 40.0121 19.092C40.1894 19.26 40.3994 19.344 40.6421 19.344C40.8848 19.344 41.0948 19.26 41.2721 19.092C41.4494 18.9147 41.5381 18.7047 41.5381 18.462V15.788L43.6801 15.27V18.448C43.6801 18.9987 43.5448 19.5073 43.2741 19.974C43.0034 20.4407 42.6348 20.814 42.1681 21.094C41.7014 21.3647 41.1928 21.5 40.6421 21.5C40.2874 21.5 39.9421 21.4347 39.6061 21.304C39.2701 21.164 38.9668 20.982 38.6961 20.758C38.4254 20.9913 38.1174 21.1733 37.7721 21.304C37.4361 21.4347 37.0814 21.5 36.7081 21.5C36.3534 21.5 35.9988 21.4253 35.6441 21.276C35.2894 21.1267 34.9814 20.94 34.7201 20.716C34.4401 20.9587 34.1228 21.15 33.7681 21.29C33.4228 21.43 33.0541 21.5 32.6621 21.5H32.6201ZM36.8481 12.666H38.8361V11.294L40.5441 11.84V14.318H36.8481V12.666ZM46.4237 12.232L48.5657 11.7V21.5H46.4237V12.232ZM53.5665 21.57C52.9878 21.57 52.4558 21.43 51.9705 21.15C51.4852 20.8607 51.0978 20.4733 50.8085 19.988C50.5285 19.5027 50.3885 18.9707 50.3885 18.392V12.204L52.5445 11.672V18.392C52.5445 18.6813 52.6425 18.924 52.8385 19.12C53.0345 19.316 53.2772 19.414 53.5665 19.414H54.5885V11.672H56.7445V21.57H53.5665ZM59.8325 19.344H62.7725V18.322C62.7725 18.042 62.6698 17.804 62.4645 17.608C62.2685 17.412 62.0305 17.314 61.7505 17.314H59.9725V15.158H61.7505C62.3198 15.158 62.8472 15.3027 63.3325 15.592C63.8178 15.872 64.2005 16.2547 64.4805 16.74C64.7698 17.2253 64.9145 17.7527 64.9145 18.322V19.344H65.8525L66.2445 20.422L65.8525 21.5H59.8325V19.344ZM65.8154 21.5L65.4654 20.422L65.8294 19.344H65.8574C66.1374 19.344 66.3754 19.246 66.5714 19.05C66.7674 18.854 66.8654 18.6113 66.8654 18.322V15.774L69.0354 15.242V18.322C69.0354 18.8913 68.8908 19.4233 68.6014 19.918C68.3214 20.4033 67.9341 20.7907 67.4394 21.08C66.9541 21.36 66.4268 21.5 65.8574 21.5H65.8154ZM64.2754 22.886H67.9714V24.566H64.2754V22.886ZM69.1455 23.278L70.4755 22.382V15.788L72.6455 15.242V18.322C72.6455 18.602 72.7435 18.8447 72.9395 19.05C73.1448 19.246 73.3828 19.344 73.6535 19.344L74.0315 20.422L73.6535 21.5C73.3268 21.5 72.9908 21.3647 72.6455 21.094V23.53L70.3355 25.07L69.1455 23.278ZM73.2584 20.422L73.6504 19.344H78.6484V18.322C78.6484 18.042 78.5504 17.804 78.3544 17.608C78.1584 17.412 77.9157 17.314 77.6264 17.314H74.5604L75.0784 15.158H77.6264C78.2051 15.158 78.7371 15.3027 79.2224 15.592C79.7171 15.872 80.1044 16.2547 80.3844 16.74C80.6737 17.2253 80.8184 17.7527 80.8184 18.322V21.5H73.6504L73.2584 20.422ZM75.7084 12.05H77.4584V13.73H75.7084V12.05ZM82.3251 23.278L83.6551 22.382V15.788L85.8251 15.242V18.322C85.8251 18.602 85.9231 18.8447 86.1191 19.05C86.3245 19.246 86.5625 19.344 86.8331 19.344L87.2111 20.422L86.8331 21.5C86.5065 21.5 86.1705 21.3647 85.8251 21.094V23.53L83.5151 25.07L82.3251 23.278ZM83.9631 12.162H85.7131V13.828H83.9631V12.162ZM86.4381 20.422L86.8301 19.344H96.4201C96.7001 19.344 96.9381 19.246 97.1341 19.05C97.3394 18.854 97.4421 18.6113 97.4421 18.322C97.4421 18.042 97.3394 17.804 97.1341 17.608C96.9381 17.412 96.7001 17.314 96.4201 17.314H87.5301V15.158L93.3961 11.756L94.5021 13.394L91.4781 15.158H96.4201C96.9987 15.158 97.5307 15.3027 98.0161 15.592C98.5014 15.872 98.8887 16.2547 99.1781 16.74C99.4674 17.2253 99.6121 17.7527 99.6121 18.322C99.6121 18.8913 99.4674 19.4233 99.1781 19.918C98.8887 20.4033 98.4967 20.7907 98.0021 21.08C97.5167 21.36 96.9894 21.5 96.4201 21.5H86.8301L86.4381 20.422ZM99.7158 23.278L101.046 22.382V15.788L103.216 15.242V18.322C103.216 18.602 103.314 18.8447 103.51 19.05C103.715 19.246 103.953 19.344 104.224 19.344L104.602 20.422L104.224 21.5C103.897 21.5 103.561 21.3647 103.216 21.094V23.53L100.906 25.07L99.7158 23.278ZM104.193 21.5L103.829 20.422L104.193 19.344H104.221C104.501 19.344 104.739 19.246 104.935 19.05C105.14 18.8447 105.243 18.602 105.243 18.322V15.144H108.421C108.99 15.144 109.517 15.2887 110.003 15.578C110.497 15.858 110.885 16.2453 111.165 16.74C111.454 17.2253 111.599 17.7527 111.599 18.322C111.599 18.8913 111.454 19.4233 111.165 19.918C110.885 20.4033 110.497 20.7907 110.003 21.08C109.517 21.36 108.99 21.5 108.421 21.5C108.019 21.5 107.637 21.4253 107.273 21.276C106.909 21.1173 106.591 20.9073 106.321 20.646C106.041 20.9167 105.719 21.1267 105.355 21.276C105 21.4253 104.622 21.5 104.221 21.5H104.193ZM107.399 18.322C107.399 18.602 107.497 18.8447 107.693 19.05C107.889 19.246 108.131 19.344 108.421 19.344C108.701 19.344 108.939 19.246 109.135 19.05C109.331 18.8447 109.429 18.602 109.429 18.322C109.429 18.0327 109.331 17.79 109.135 17.594C108.939 17.398 108.701 17.3 108.421 17.3H107.399V18.322Z" fill="#0D121C"/>
<path d="M27.9889 36.48H30.6889V35.196C30.6889 34.836 30.5609 34.532 30.3049 34.284C30.0569 34.036 29.7529 33.912 29.3929 33.912H28.2889V32.892H29.3929C29.8169 32.892 30.2049 32.996 30.5569 33.204C30.9089 33.404 31.1849 33.68 31.3849 34.032C31.5929 34.384 31.6969 34.772 31.6969 35.196V36.48H32.3329L32.5129 36.984L32.3329 37.5H27.9889V36.48ZM32.3239 37.5L32.1559 36.996L32.3239 36.48H32.3359C32.6879 36.48 32.9879 36.356 33.2359 36.108C33.4919 35.852 33.6199 35.548 33.6199 35.196V33.324L34.6399 33.072V35.196C34.6399 35.548 34.7639 35.852 35.0119 36.108C35.2679 36.356 35.5719 36.48 35.9239 36.48L36.1039 36.996L35.9239 37.5C35.5639 37.5 35.2239 37.42 34.9039 37.26C34.5839 37.092 34.3239 36.868 34.1239 36.588C33.9159 36.868 33.6559 37.092 33.3439 37.26C33.0319 37.42 32.6959 37.5 32.3359 37.5H32.3239ZM33.5119 30.9H34.5679V31.836H33.5119V30.9ZM35.9099 37.5L35.7419 36.996L35.9099 36.48H35.9219C36.2739 36.48 36.5739 36.356 36.8219 36.108C37.0779 35.852 37.2059 35.548 37.2059 35.196V32.88H39.5099C39.9339 32.88 40.3219 32.984 40.6739 33.192C41.0259 33.4 41.3059 33.68 41.5139 34.032C41.7219 34.384 41.8259 34.772 41.8259 35.196C41.8259 35.548 41.9499 35.852 42.1979 36.108C42.4539 36.356 42.7579 36.48 43.1099 36.48L43.2779 36.996L43.0979 37.5C42.7459 37.5 42.4139 37.42 42.1019 37.26C41.7979 37.1 41.5419 36.888 41.3339 36.624C41.1179 36.896 40.8499 37.112 40.5299 37.272C40.2179 37.424 39.8779 37.5 39.5099 37.5C39.1499 37.5 38.8099 37.42 38.4899 37.26C38.1779 37.092 37.9219 36.868 37.7219 36.588C37.5139 36.868 37.2499 37.092 36.9299 37.26C36.6179 37.42 36.2819 37.5 35.9219 37.5H35.9099ZM38.2379 35.196C38.2379 35.548 38.3619 35.852 38.6099 36.108C38.8579 36.356 39.1579 36.48 39.5099 36.48C39.8699 36.48 40.1739 36.356 40.4219 36.108C40.6699 35.852 40.7939 35.548 40.7939 35.196C40.7939 34.836 40.6699 34.532 40.4219 34.284C40.1739 34.036 39.8699 33.912 39.5099 33.912H38.2379V35.196ZM43.0697 37.5L42.9137 36.996L43.0817 36.48H43.0938C43.4458 36.48 43.7458 36.356 43.9938 36.108C44.2498 35.852 44.3778 35.548 44.3778 35.196V33.48H45.3978V35.484C45.3978 35.756 45.4938 35.992 45.6858 36.192C45.8858 36.384 46.1218 36.48 46.3938 36.48C46.6738 36.48 46.9098 36.384 47.1018 36.192C47.3018 35.992 47.4018 35.756 47.4018 35.484V33.48H48.4218V35.484C48.4218 35.756 48.5178 35.992 48.7098 36.192C48.9098 36.384 49.1458 36.48 49.4178 36.48C49.6978 36.48 49.9338 36.384 50.1258 36.192C50.3258 35.992 50.4258 35.756 50.4258 35.484V33.372L51.4458 33.12V35.472C51.4458 35.84 51.3538 36.18 51.1698 36.492C50.9938 36.796 50.7498 37.04 50.4378 37.224C50.1258 37.408 49.7858 37.5 49.4178 37.5C49.1538 37.5 48.8818 37.428 48.6018 37.284C48.3298 37.14 48.1018 36.972 47.9178 36.78C47.7338 37.004 47.5098 37.18 47.2458 37.308C46.9818 37.436 46.6978 37.5 46.3938 37.5C46.1138 37.5 45.8218 37.42 45.5178 37.26C45.2218 37.092 44.9898 36.904 44.8218 36.696C44.6058 36.944 44.3498 37.14 44.0538 37.284C43.7578 37.428 43.4378 37.5 43.0938 37.5H43.0697ZM46.7178 31.128H48.2778V30L49.2258 30.276V31.992H46.7178V31.128ZM53.1674 39.216L55.7594 37.5H54.5954C54.2274 37.5 53.8714 37.396 53.5274 37.188C53.1834 36.972 52.9034 36.688 52.6874 36.336C52.4794 35.984 52.3754 35.604 52.3754 35.196C52.3754 34.78 52.4794 34.396 52.6874 34.044C52.8954 33.684 53.1754 33.4 53.5274 33.192C53.8794 32.984 54.2634 32.88 54.6794 32.88H56.9954V36.48H57.5834L57.7634 36.996L57.5834 37.5H56.9954V37.896L53.7434 40.068L53.1674 39.216ZM53.3954 35.184C53.3954 35.536 53.5194 35.84 53.7674 36.096C54.0234 36.352 54.3274 36.48 54.6794 36.48H55.9754V33.9H54.6794C54.3274 33.9 54.0234 34.028 53.7674 34.284C53.5194 34.532 53.3954 34.832 53.3954 35.184ZM57.3981 36.996L57.5781 36.48H58.6821C58.3541 36.128 58.1901 35.7 58.1901 35.196C58.1901 34.948 58.2301 34.716 58.3101 34.5C58.3981 34.276 58.5221 34.08 58.6821 33.912H58.1661V32.892H63.6261C64.0421 32.892 64.4261 32.996 64.7781 33.204C65.1301 33.412 65.4101 33.692 65.6181 34.044C65.8261 34.396 65.9301 34.78 65.9301 35.196C65.9301 35.612 65.8261 35.996 65.6181 36.348C65.4101 36.7 65.1301 36.98 64.7781 37.188C64.4261 37.396 64.0421 37.5 63.6261 37.5H57.5781L57.3981 36.996ZM59.2101 35.196C59.2101 35.548 59.3341 35.852 59.5821 36.108C59.8381 36.356 60.1421 36.48 60.4941 36.48C60.8461 36.48 61.1461 36.356 61.3941 36.108C61.6501 35.852 61.7781 35.548 61.7781 35.196C61.7781 34.836 61.6501 34.532 61.3941 34.284C61.1461 34.036 60.8461 33.912 60.4941 33.912C60.1421 33.912 59.8381 34.036 59.5821 34.284C59.3341 34.532 59.2101 34.836 59.2101 35.196ZM63.6261 36.48C63.9781 36.48 64.2781 36.356 64.5261 36.108C64.7821 35.852 64.9101 35.548 64.9101 35.196C64.9101 34.836 64.7821 34.532 64.5261 34.284C64.2781 34.036 63.9781 33.912 63.6261 33.912H62.3061C62.4581 34.088 62.5781 34.288 62.6661 34.512C62.7541 34.728 62.7981 34.956 62.7981 35.196C62.7981 35.684 62.6341 36.112 62.3061 36.48H63.6261ZM70.601 40.476C70.185 40.476 69.797 40.372 69.437 40.164C69.085 39.964 68.805 39.688 68.597 39.336C68.389 38.984 68.285 38.596 68.285 38.172V35.724L69.317 35.472V38.172C69.317 38.524 69.441 38.828 69.689 39.084C69.945 39.34 70.249 39.468 70.601 39.468H71.789C72.149 39.468 72.453 39.34 72.701 39.084C72.949 38.836 73.073 38.532 73.073 38.172V33.324L74.105 33.072V36.48H74.933L75.113 36.996L74.933 37.5H74.105V38.172C74.105 38.596 74.001 38.984 73.793 39.336C73.585 39.688 73.305 39.964 72.953 40.164C72.601 40.372 72.213 40.476 71.789 40.476H70.601ZM70.337 33.084H71.393V34.008H70.337V33.084ZM74.9096 37.5L74.7536 36.996L74.9216 36.48H74.9336C75.2856 36.48 75.5856 36.356 75.8336 36.108C76.0896 35.852 76.2176 35.548 76.2176 35.196V33.48H77.2376V35.484C77.2376 35.756 77.3336 35.992 77.5256 36.192C77.7256 36.384 77.9616 36.48 78.2336 36.48C78.5136 36.48 78.7496 36.384 78.9416 36.192C79.1416 35.992 79.2416 35.756 79.2416 35.484V33.48H80.2616V35.484C80.2616 35.756 80.3576 35.992 80.5496 36.192C80.7496 36.384 80.9856 36.48 81.2576 36.48C81.5376 36.48 81.7736 36.384 81.9656 36.192C82.1656 35.992 82.2656 35.756 82.2656 35.484V33.372L83.2856 33.12V35.196C83.2856 35.548 83.4096 35.852 83.6576 36.108C83.9136 36.356 84.2176 36.48 84.5696 36.48L84.7496 36.996L84.5696 37.5C84.2416 37.5 83.9256 37.432 83.6216 37.296C83.3256 37.152 83.0736 36.956 82.8656 36.708C82.6736 36.956 82.4376 37.152 82.1576 37.296C81.8776 37.432 81.5776 37.5 81.2576 37.5C80.9936 37.5 80.7216 37.428 80.4416 37.284C80.1696 37.14 79.9416 36.972 79.7576 36.78C79.5736 37.004 79.3496 37.18 79.0856 37.308C78.8216 37.436 78.5376 37.5 78.2336 37.5C77.9536 37.5 77.6616 37.42 77.3576 37.26C77.0616 37.092 76.8296 36.904 76.6616 36.696C76.4456 36.944 76.1896 37.14 75.8936 37.284C75.5976 37.428 75.2776 37.5 74.9336 37.5H74.9096ZM78.4976 31.128H80.0576V30L80.9936 30.276V31.992H78.4976V31.128ZM84.3864 36.996L84.5664 36.48H85.5024C85.8544 36.48 86.1544 36.356 86.4024 36.108C86.6584 35.852 86.7864 35.548 86.7864 35.196V33.324L87.8064 33.072V35.196C87.8064 35.548 87.9304 35.852 88.1784 36.108C88.4344 36.356 88.7384 36.48 89.0904 36.48L89.2704 36.996L89.0904 37.5C88.7304 37.5 88.3904 37.42 88.0704 37.26C87.7584 37.092 87.4984 36.868 87.2904 36.588C87.0824 36.868 86.8224 37.092 86.5104 37.26C86.1984 37.42 85.8624 37.5 85.5024 37.5H84.5664L84.3864 36.996ZM85.1184 38.688H87.6024V39.576H85.1184V38.688ZM88.9098 36.996L89.0898 36.48H96.1698C96.5218 36.48 96.8218 36.356 97.0698 36.108C97.3258 35.852 97.4538 35.548 97.4538 35.196C97.4538 34.836 97.3258 34.532 97.0698 34.284C96.8218 34.036 96.5218 33.912 96.1698 33.912H89.7018V32.88L94.1778 30.108L94.7418 30.924L91.5498 32.892H96.1698C96.5938 32.892 96.9818 32.996 97.3338 33.204C97.6858 33.404 97.9658 33.68 98.1738 34.032C98.3818 34.384 98.4858 34.772 98.4858 35.196C98.4858 35.548 98.6098 35.852 98.8578 36.108C99.1058 36.356 99.4058 36.48 99.7578 36.48L99.9378 36.996L99.7578 37.5C99.4058 37.5 99.0738 37.424 98.7618 37.272C98.4578 37.112 98.1978 36.896 97.9818 36.624C97.7658 36.896 97.5018 37.112 97.1898 37.272C96.8778 37.424 96.5378 37.5 96.1698 37.5H89.0898L88.9098 36.996ZM99.7419 37.5L99.5739 36.996L99.7419 36.48H99.7539C100.106 36.48 100.406 36.356 100.654 36.108C100.91 35.852 101.038 35.548 101.038 35.196V33.324L102.058 33.072V35.196C102.058 35.548 102.182 35.852 102.43 36.108C102.686 36.356 102.99 36.48 103.342 36.48L103.522 36.996L103.342 37.5C102.982 37.5 102.642 37.42 102.322 37.26C102.002 37.092 101.742 36.868 101.542 36.588C101.334 36.868 101.074 37.092 100.762 37.26C100.45 37.42 100.114 37.5 99.7539 37.5H99.7419ZM98.6499 38.688H101.134V39.576H98.6499V38.688ZM103.316 37.5L103.16 36.996L103.328 36.48H103.34C103.692 36.48 103.992 36.356 104.24 36.108C104.496 35.852 104.624 35.548 104.624 35.196V30.252L105.656 30.012V35.196C105.656 35.548 105.78 35.852 106.028 36.108C106.276 36.356 106.576 36.48 106.928 36.48L107.108 36.996L106.928 37.5C106.568 37.5 106.236 37.42 105.932 37.26C105.628 37.1 105.372 36.884 105.164 36.612C104.94 36.884 104.668 37.1 104.348 37.26C104.036 37.42 103.7 37.5 103.34 37.5H103.316ZM106.902 37.5L106.746 36.996L106.914 36.48H106.926C107.278 36.48 107.578 36.356 107.826 36.108C108.082 35.852 108.21 35.548 108.21 35.196V33.324L109.23 33.072V35.196C109.23 35.612 109.126 35.996 108.918 36.348C108.71 36.7 108.43 36.98 108.078 37.188C107.726 37.396 107.342 37.5 106.926 37.5H106.902ZM105.918 38.712H108.414V40.428L107.478 40.704V39.588H105.918V38.712ZM110.449 30.252L111.481 30V37.5H110.449V30.252Z" fill="#777F89"/>
<g clip-path="url(#clip0_2004_3542)">
<path d="M134.683 42.5H143.492C143.492 42.5 147.013 25.407 157.693 7.5H148.884C138.205 25.407 134.683 42.5 134.683 42.5Z" fill="#F3D7AF"/>
<path d="M148.886 7.5C142.987 17.3896 139.273 27.0308 137.129 33.6816C135.391 39.0733 134.685 42.5 134.685 42.5H130.448C130.448 42.5 129.865 39.0733 128.32 33.6816C129.421 30.2696 130.934 26.0704 132.943 21.4538C134.851 17.0727 137.205 12.3158 140.077 7.5H148.886Z" fill="#C9C8C9"/>
<path d="M140.077 7.5C139.174 9.01462 138.321 10.5232 137.519 12.017C136.77 10.524 135.971 9.01462 135.122 7.5H140.077Z" fill="#666561"/>
<path d="M157.691 7.5C151.797 17.3836 148.083 27.0195 145.938 33.6695C144.032 27.0195 140.663 17.3836 135.122 7.5H126.313C136.352 25.407 139.262 42.5 139.262 42.5H152.298C152.298 42.5 155.82 25.407 166.5 7.5H157.691Z" fill="#A88132"/>
<path d="M139.257 42.5H130.448C130.448 42.5 129.865 39.0733 128.32 33.6816C126.414 27.0308 123.044 17.3896 117.5 7.5H126.309C129.008 12.3158 131.192 17.0727 132.943 21.4538C134.788 26.0704 136.151 30.2696 137.129 33.6816C138.674 39.0733 139.257 42.5 139.257 42.5Z" fill="#19563E"/>
</g>
<defs>
<clipPath id="clip0_2004_3542">
<rect width="49" height="35" fill="white" transform="translate(117.5 7.5)"/>
</clipPath>
</defs>
</svg>
